<?xml version="1.0" encoding="UTF-8" standalone="no"?>
<svg
   xmlns:dc="http://purl.org/dc/elements/1.1/"
   xmlns:cc="http://creativecommons.org/ns#"
   xmlns:rdf="http://www.w3.org/1999/02/22-rdf-syntax-ns#"
   xmlns:svg="http://www.w3.org/2000/svg"
   xmlns="http://www.w3.org/2000/svg"
   xmlns:sodipodi="http://sodipodi.sourceforge.net/DTD/sodipodi-0.dtd"
   xmlns:inkscape="http://www.inkscape.org/namespaces/inkscape"
   id="svg7384"
   style="enable-background:new"
   width="22"
   height="22"
   version="1.1"
   sodipodi:docname="audio.svg"
   inkscape:version="0.92.1 r">
  <metadata
     id="metadata25">
    <rdf:RDF>
      <cc:Work
         rdf:about="">
        <dc:format>image/svg+xml</dc:format>
        <dc:type
           rdf:resource="http://purl.org/dc/dcmitype/StillImage" />
      </cc:Work>
    </rdf:RDF>
  </metadata>
  <sodipodi:namedview
     pagecolor="#ffffff"
     bordercolor="#666666"
     borderopacity="1"
     objecttolerance="10"
     gridtolerance="10"
     guidetolerance="10"
     inkscape:pageopacity="0"
     inkscape:pageshadow="2"
     inkscape:window-width="1680"
     inkscape:window-height="966"
     id="namedview23"
     showgrid="false"
     inkscape:zoom="9.3209529"
     inkscape:cx="41.676878"
     inkscape:cy="18.42185"
     inkscape:current-layer="svg7384"
     inkscape:window-x="0"
     inkscape:window-y="0"
     inkscape:window-maximized="1" />
  <defs
     id="defs8">
    <style
       id="current-color-scheme"
       type="text/css">
   .ColorScheme-Text { color:#5c616c; } .ColorScheme-Highlight { color:#5294e2; } .ColorScheme-ButtonBackground { color:#5c616c; }
  </style>
  </defs>
  <g
     id="audio-volume-muted"
     transform="translate(-325.0004,419)"
     style="fill:#5c616c;fill-opacity:1">
    <path
       id="rect4182"
       style="opacity:0.001;fill:#5c616c;fill-opacity:1"
       d="m 325.0004,-419 22,0 c 0,0 0,0 0,0 l 0,22 c 0,0 0,0 0,0 l -22,0 c 0,0 0,0 0,0 l 0,-22 c 0,0 0,0 0,0 z" />
    <path
       id="path5105"
       opacity=".3"
       style="fill:#5c616c;fill-opacity:1"
       class="ColorScheme-Text"
       d="m 335.0004,-416 -5,5 -3,0 0,6 3,0 5,5 z m 2,0 0,2 c 2.86838,0.84571 5,3.06286 5,6 0,2.93714 -2.13163,5.15429 -5,6 l 0,2 c 3.89455,-0.89143 7,-4.11429 7,-8 0,-3.88571 -3.10545,-7.10857 -7,-8 z m 0,4 0,8 c 0,0 3.0002,-1 3,-4 -2e-4,-3 -3,-4 -3,-4 z" />
  </g>
  <g
     id="audio-volume-low"
     transform="translate(-300.0004,419)">
    <path
       id="path4176"
       style="opacity:0.001;fill:currentColor"
       d="m 325.0004,-419 22,0 c 0,0 0,0 0,0 l 0,22 c 0,0 0,0 0,0 l -22,0 c 0,0 0,0 0,0 l 0,-22 c 0,0 0,0 0,0 z" />
    <path
       id="path4196"
       opacity="1"
       style="fill:currentColor"
       class="ColorScheme-Text"
       d="m 335.0004,-416 -5,5 -3,0 0,6 3,0 5,5 z" />
    <path
       id="path4194"
       opacity=".3"
       style="fill:currentColor"
       class="ColorScheme-Text"
       d="m 337.0004,-416 0,2 c 2.86838,0.84571 5,3.06286 5,6 0,2.93714 -2.13163,5.15429 -5,6 l 0,2 c 3.89455,-0.89143 7,-4.11429 7,-8 0,-3.88571 -3.10545,-7.10857 -7,-8 z" />
    <path
       id="path4178"
       opacity=".3"
       style="fill:currentColor"
       class="ColorScheme-Text"
       d="m 337.0004,-412 0,8 c 0,0 3.0002,-1 3,-4 -2e-4,-3 -3,-4 -3,-4 z" />
  </g>
  <g
     id="audio-volume-medium"
     transform="translate(-275.0004,419)">
    <path
       id="path4182"
       style="opacity:0.001;fill:currentColor"
       d="m 325.0004,-419 22,0 c 0,0 0,0 0,0 l 0,22 c 0,0 0,0 0,0 l -22,0 c 0,0 0,0 0,0 l 0,-22 c 0,0 0,0 0,0 z" />
    <path
       id="path4202"
       opacity="1"
       style="fill:currentColor"
       class="ColorScheme-Text"
       d="m 335.0004,-416 -5,5 -3,0 0,6 3,0 5,5 z" />
    <path
       id="path4200"
       opacity=".3"
       style="fill:currentColor"
       class="ColorScheme-Text"
       d="m 337.0004,-416 0,2 c 2.86838,0.84571 5,3.06286 5,6 0,2.93714 -2.13163,5.15429 -5,6 l 0,2 c 3.89455,-0.89143 7,-4.11429 7,-8 0,-3.88571 -3.10545,-7.10857 -7,-8 z" />
    <path
       id="path4184"
       opacity="1"
       style="fill:currentColor"
       class="ColorScheme-Text"
       d="m 337.0004,-412 0,8 c 0,0 3.0002,-1 3,-4 -2e-4,-3 -3,-4 -3,-4 z" />
  </g>
  <g
     id="audio-volume-high"
     transform="translate(-250.0004,419)">
    <path
       id="path4188"
       style="opacity:0.001;fill:currentColor"
       d="m 325.0004,-419 22,0 c 0,0 0,0 0,0 l 0,22 c 0,0 0,0 0,0 l -22,0 c 0,0 0,0 0,0 l 0,-22 c 0,0 0,0 0,0 z" />
    <path
       id="path4208"
       opacity="1"
       style="fill:currentColor"
       class="ColorScheme-Text"
       d="m 335.0004,-416 -5,5 -3,0 0,6 3,0 5,5 z" />
    <path
       id="path4206"
       opacity="1"
       style="fill:currentColor"
       class="ColorScheme-Text"
       d="m 337.0004,-416 0,2 c 2.86838,0.84571 5,3.06286 5,6 0,2.93714 -2.13163,5.15429 -5,6 l 0,2 c 3.89455,-0.89143 7,-4.11429 7,-8 0,-3.88571 -3.10545,-7.10857 -7,-8 z" />
    <path
       id="path4190"
       opacity="1"
       style="fill:currentColor"
       class="ColorScheme-Text"
       d="m 337.0004,-412 0,8 c 0,0 3.0002,-1 3,-4 -2e-4,-3 -3,-4 -3,-4 z" />
  </g>
  <path
     d="m 24.72596,-26.22795 h 22 c 0,0 0,0 0,0 v 22 c 0,0 0,0 0,0 h -22 c 0,0 0,0 0,0 v -22 c 0,0 0,0 0,0 z"
     style="opacity:0.00100002;fill:currentColor"
     id="path4176-6"
     inkscape:connector-curvature="0" />
  <path
     d="m 34.72596,-23.22795 -5,5 h -3 v 6 h 3 l 5,5 z"
     class="ColorScheme-Text"
     style="color:#5c616c;opacity:1;fill:currentColor"
     id="path4196-7"
     inkscape:connector-curvature="0" />
  <path
     d="m 36.72596,-23.22795 v 2 c 2.86838,0.84571 5,3.06286 5,6 0,2.93714 -2.13163,5.15429 -5,6 v 2 c 3.89455,-0.89143 7,-4.11429 7,-8 0,-3.88571 -3.10545,-7.10857 -7,-8 z"
     class="ColorScheme-Text"
     style="color:#5c616c;opacity:0.3;fill:currentColor"
     id="path4194-5"
     inkscape:connector-curvature="0" />
  <path
     d="m 36.72596,-19.22795 v 8 c 0,0 3.0002,-1 3,-4 -2e-4,-3 -3,-4 -3,-4 z"
     class="ColorScheme-Text"
     style="color:#5c616c;opacity:0.3;fill:currentColor"
     id="path4178-3"
     inkscape:connector-curvature="0" />
</svg>
